<?xml version="1.0" encoding="UTF-8"?>
<!DOCTYPE svg PUBLIC "-//W3C//DTD SVG 1.1//EN" "http://www.w3.org/Graphics/SVG/1.1/DTD/svg11.dtd">
<!-- Creator: CorelDRAW 2021 (64-Bit) -->
<svg xmlns="http://www.w3.org/2000/svg" xml:space="preserve" width="4.30383in" height="4.10017in" version="1.1" style="shape-rendering:geometricPrecision; text-rendering:geometricPrecision; image-rendering:optimizeQuality; fill-rule:evenodd; clip-rule:evenodd"
viewBox="0 0 4303.83 4100.17"
 xmlns:xlink="http://www.w3.org/1999/xlink"
 xmlns:xodm="http://www.corel.com/coreldraw/odm/2003">
 <defs>
  <style type="text/css">
   <![CDATA[
    .str0 {stroke:#FEFEFE;stroke-width:55.56;stroke-miterlimit:2.61313}
    .fil0 {fill:#FEFEFE;fill-rule:nonzero}
   ]]>
  </style>
 </defs>
 <g id="Layer_x0020_1">
  <metadata id="CorelCorpID_0Corel-Layer"/>
  <g id="_2257694638208">
   <path class="fil0 str0" d="M3282.93 630.73c1.86,0.13 3.72,0.26 5.59,0.26 3.21,0 6.43,-0.26 9.51,-0.7 83.69,1.73 150.61,69.94 150.74,153.63 0,37.96 30.76,68.79 68.79,68.79 38.02,0 68.85,-30.83 68.85,-68.79 -0.19,-136.86 -95.44,-255.23 -229.03,-284.65l0 -66.15c0,-38.02 -30.83,-68.79 -68.85,-68.79 -38.02,0 -68.85,30.76 -68.85,68.79l0 69.3c-141.23,37.76 -232.69,174.44 -213.61,319.46 19.07,145.02 142.65,253.44 288.89,253.44 84.97,0 153.82,68.85 153.82,153.76 0,84.91 -68.85,153.76 -153.82,153.76 -84.91,0 -153.69,-68.85 -153.69,-153.76 0,-37.96 -30.83,-68.79 -68.85,-68.79 -38.02,0 -68.85,30.83 -68.85,68.79 0.19,131.92 88.76,247.27 216.12,281.5l0 75.4c0,38.02 30.83,68.85 68.85,68.85 38.02,0 68.85,-30.83 68.85,-68.85l0 -72.25c145.34,-31.8 243.35,-168.02 227.36,-315.99 -15.99,-147.91 -140.91,-260.05 -289.78,-259.98 -82.53,0 -150.42,-65.19 -153.63,-147.72 -3.21,-82.46 59.28,-152.86 141.62,-159.22l0 -0.06z"/>
   <path class="fil0 str0" d="M3298.92 27.78c-423.44,0 -784.77,276.3 -920.16,646.24l-1708.28 0c-37.89,0 -68.59,34.11 -68.85,71.93l-16.25 2414.5 -486.96 0c-38.02,0 -70.65,27.49 -70.65,65.57l0 306.42c0.9,288.44 228.07,525.43 516.24,538.47l0 1.48 2125.04 0 0 -1.99c17.21,0.64 24.28,1.99 35.2,1.99l1.48 0c298.2,-0.45 539.75,-242.39 539.75,-540.59l0 -1549.19c17.21,0.96 35.45,1.48 53.24,1.48 538.85,0 977.32,-439.37 977.32,-978.22 0,-538.79 -438.28,-978.09 -977.13,-978.09zm-2728.76 3906.98l-0.45 0c-222.61,-0.32 -403.28,-180.35 -404.3,-403.02l0 -233.65 1996.07 0 0 232.69c0.06,143.61 57.48,281.31 159.35,382.59 7.19,7.19 16.18,12.78 23.76,21.39l-1774.43 0zm2537.69 -403.02c0,222.29 -179.96,402.57 -402.18,403.02l-1.28 0c-223.19,-0.39 -404.17,-180.8 -405.26,-403.92l0 -304.82c0.57,-17.6 -6.17,-34.62 -18.63,-47.08 -12.46,-12.46 -29.48,-19.14 -47.08,-18.5l-1510.4 0 15.8 -2348.8 1601.73 0c-12.2,63 -18.5,127.04 -18.88,191.2 -0.07,135.65 28.19,269.82 83.11,393.84l-650.09 0c-38.02,0 -68.85,30.83 -68.85,68.85 0,38.02 30.83,68.85 68.85,68.85l724.78 0c142,223.25 368.98,378.93 628.39,431.02l0 1566.34zm191.07 -1685.28c-463.65,0 -839.56,-375.85 -839.56,-839.56 0,-463.71 375.91,-839.56 839.56,-839.56 463.65,0 839.56,375.91 839.56,839.56 -0.52,463.45 -376.11,839.04 -839.56,839.56z"/>
   <path class="fil0 str0" d="M1312.87 1854.81c-121.52,0 -220.29,95.63 -220.29,213.29 0,117.6 98.78,213.3 220.29,213.3 121.52,0 220.3,-95.7 220.3,-213.3 0,-117.66 -98.78,-213.29 -220.3,-213.29zm0 288.95c-45.6,0 -82.66,-33.97 -82.66,-75.66 0,-41.75 37.06,-75.66 82.66,-75.66 45.54,0 82.66,33.91 82.66,75.66 0,41.69 -37.13,75.66 -82.66,75.66z"/>
   <path class="fil0 str0" d="M1685.83 2067.78c0,38.02 30.83,68.85 68.85,68.85l917.59 0c38.02,0 68.85,-30.83 68.85,-68.85 0,-38.02 -30.83,-68.79 -68.85,-68.79l-917.59 0c-38.02,0 -68.85,30.76 -68.85,68.79z"/>
   <path class="fil0 str0" d="M1312.87 1256.48c-121.52,0 -220.29,95.7 -220.29,213.36 0,117.59 98.78,213.29 220.29,213.29 121.52,0 220.3,-95.7 220.3,-213.29 0,-117.66 -98.78,-213.36 -220.3,-213.36zm0 288.95c-45.6,0 -82.66,-33.91 -82.66,-75.59 0,-41.75 37.06,-75.72 82.66,-75.72 45.54,0 82.66,33.98 82.66,75.72 0,41.68 -37.13,75.66 -82.66,75.66l0 -0.07z"/>
   <path class="fil0 str0" d="M1312.87 2453.01c-121.52,0 -220.29,95.7 -220.29,213.36 0,117.59 98.78,213.29 220.29,213.29 121.52,0 220.3,-95.7 220.3,-213.29 0,-117.66 -98.78,-213.36 -220.3,-213.36zm0 289.02c-45.6,0 -82.66,-33.98 -82.66,-75.66 0,-41.75 37.06,-75.66 82.66,-75.66 45.54,0 82.66,33.91 82.66,75.66 0,41.68 -37.13,75.66 -82.66,75.66z"/>
   <path class="fil0 str0" d="M2672.27 2601.18l-917.59 0c-38.02,0 -68.85,30.83 -68.85,68.85 0,38.02 30.83,68.85 68.85,68.85l917.59 0c38.02,0 68.85,-30.83 68.85,-68.85 0,-38.02 -30.83,-68.85 -68.85,-68.85z"/>
  </g>
 </g>
</svg>
