<?xml version="1.0" encoding="UTF-8"?>
<!DOCTYPE svg PUBLIC "-//W3C//DTD SVG 1.1//EN" "http://www.w3.org/Graphics/SVG/1.1/DTD/svg11.dtd">
<!-- Creator: CorelDRAW 2021 (64-Bit) -->
<svg xmlns="http://www.w3.org/2000/svg" xml:space="preserve" width="3.22552in" height="2.0625in" version="1.1" style="shape-rendering:geometricPrecision; text-rendering:geometricPrecision; image-rendering:optimizeQuality; fill-rule:evenodd; clip-rule:evenodd"
viewBox="0 0 3225.52 2062.5"
 xmlns:xlink="http://www.w3.org/1999/xlink"
 xmlns:xodm="http://www.corel.com/coreldraw/odm/2003">
 <defs>
  <style type="text/css">
   <![CDATA[
    .fil1 {fill:none;fill-rule:nonzero}
    .fil0 {fill:#E8E8E8;fill-rule:nonzero}
   ]]>
  </style>
    <clipPath id="id0" style="clip-rule:nonzero">
     <path d="M-0 2062.5l1523.76 0 0 -1484.18 -1523.76 0 0 1484.18z"/>
    </clipPath>
 </defs>
 <g id="Layer_x0020_1">
  <metadata id="CorelCorpID_0Corel-Layer"/>
  <g id="_2708614051568">
   <path class="fil0" d="M915.77 37.9c37.9,1.8 77.61,2.71 119.13,2.71 41.5,0 81.22,-0.91 119.12,-2.71l2.71 26.17c-28.88,6.03 -48.13,11.43 -57.76,16.24 -9.63,4.23 -15.04,11.73 -16.24,22.57 -4.81,35.49 -7.22,99.86 -7.22,193.13 0,151.01 1.8,244.87 5.42,281.57l1.8 18.95c1.2,10.82 6.92,18.65 17.15,23.46 10.22,4.21 30.07,9.32 59.56,15.35l-2.71 26.17c-37.9,-1.8 -79.11,-2.71 -123.65,-2.71 -44.51,0 -85.73,0.91 -123.63,2.71l-2.71 -26.17c30.68,-6.03 51.44,-11.44 62.27,-16.26 10.84,-4.81 16.85,-12.32 18.06,-22.55 4.81,-31.89 7.22,-109.81 7.22,-233.74 -23.48,-3.01 -67.1,-4.51 -130.86,-4.51 -93.86,0 -157.64,1.2 -191.33,3.6l-12.62 0.91c0,111.31 1.8,183.51 5.4,216.59l1.82 17.15c1.2,10.82 6.92,18.65 17.15,23.46 10.22,4.21 30.07,9.32 59.56,15.35l-2.71 26.17c-37.9,-1.8 -79.11,-2.71 -123.65,-2.71 -44.51,0 -85.73,0.91 -123.63,2.71l-2.71 -26.17c30.68,-6.03 51.43,-11.44 62.27,-16.26 10.82,-4.81 16.85,-12.32 18.04,-22.55 4.81,-35.49 7.22,-99.88 7.22,-193.13 0,-151.01 -1.8,-245.17 -5.4,-282.48l-1.82 -18.04c-1.19,-10.84 -6.61,-18.34 -16.24,-22.57 -9.63,-4.81 -28.88,-10.21 -57.76,-16.24l2.71 -26.17c37.9,1.8 77.61,2.71 119.13,2.71 41.5,0 81.22,-0.91 119.12,-2.71l2.71 26.17c-28.88,6.03 -48.13,11.43 -57.76,16.24 -9.63,4.23 -15.04,11.73 -16.24,22.57 -4.22,28.88 -6.63,98.67 -7.22,209.37 23.46,3.02 66.78,4.51 129.95,4.51 94.44,0 158.53,-1.19 192.22,-3.6l12.64 -0.91c0,-98.67 -1.82,-163.34 -5.42,-194.02l-1.8 -15.35c-1.21,-10.84 -6.63,-18.34 -16.26,-22.57 -9.63,-4.81 -28.88,-10.21 -57.76,-16.24l2.71 -26.17zm514.17 249.98c-24.67,0 -46.03,6.31 -64.09,18.95 -18.04,12.03 -31.29,27.38 -39.7,46.03 -16.24,34.3 -24.37,67.08 -24.37,98.37 0,49.34 9.93,90.56 29.79,123.65 19.84,32.48 51.13,48.74 93.85,48.74 22.85,0 43.02,-5.11 60.45,-15.35 17.45,-10.84 30.7,-24.67 39.72,-41.52 17.45,-31.28 26.78,-62.57 27.97,-93.86 0,-123.34 -41.22,-185 -123.63,-185zm4.51 -44.23c68.57,0 118.53,17.45 149.81,52.35 31.29,34.89 46.92,83.63 46.92,146.2 0,61.96 -18.04,114.91 -54.14,158.83 -35.51,43.93 -87.55,65.89 -156.15,65.89 -68.58,0 -118.51,-17.15 -149.8,-51.44 -31.28,-34.91 -46.94,-83.32 -46.94,-145.31 0,-61.96 17.76,-115.21 53.25,-159.72 36.1,-44.53 88.44,-66.8 157.04,-66.8zm390.13 -235.54c-1.19,75.21 -1.8,185.31 -1.8,330.31 0,145 3.3,237.34 9.93,277.06 0.59,4.2 8.41,8.41 23.46,12.64 15.05,4.2 28.28,6.61 39.7,7.22l-2.69 26.17c-28.88,-1.8 -63.79,-2.71 -104.7,-2.71 -40.91,0 -75.8,0.91 -104.68,2.71l2.69 -26.17c12.64,-1.21 25.89,-3.62 39.72,-7.22 14.44,-4.22 21.96,-8.43 22.57,-12.64 4.21,-39.11 6.31,-114.32 6.31,-225.61 0,-181.1 -1.8,-286.99 -5.42,-317.67l-1.8 -15.35 -57.76 -17.15 -1.8 -23.46c38.51,0 78.2,-5.42 119.12,-16.24l17.15 8.11zm245.89 0c-1.2,75.21 -1.8,185.31 -1.8,330.31 0,145 3.3,237.34 9.93,277.06 0.59,4.2 8.41,8.41 23.46,12.64 15.05,4.2 28.27,6.61 39.7,7.22l-2.69 26.17c-28.88,-1.8 -63.78,-2.71 -104.7,-2.71 -40.91,0 -75.8,0.91 -104.67,2.71l2.69 -26.17c12.64,-1.21 25.89,-3.62 39.72,-7.22 14.44,-4.22 21.96,-8.43 22.57,-12.64 4.2,-39.11 6.31,-114.32 6.31,-225.61 0,-181.1 -1.8,-286.99 -5.42,-317.67l-1.8 -15.35 -57.76 -17.15 -1.8 -23.46c38.5,0 78.2,-5.42 119.12,-16.24l17.15 8.11zm279.28 265.33c-18.04,1.8 -31.59,5.42 -40.61,10.84 -9.02,5.4 -13.53,9.91 -13.53,13.53 0,3.01 31.87,102.87 95.66,299.61 66.17,-188.91 99.28,-288.19 99.28,-297.81 0,-13.23 -16.54,-21.96 -49.65,-26.17l-2.71 -26.17c20.46,1.8 42.13,2.71 64.98,2.71l92.06 -2.71 2.71 26.17c-30.68,4.2 -49.63,15.35 -56.85,33.39 -25.88,80.63 -69.48,197.94 -130.86,351.96 -46.33,117.32 -90.54,190.73 -132.67,220.19 -12.04,8.43 -21.36,13.25 -27.97,14.44 -6.03,1.82 -12.04,2.71 -18.06,2.71 -6.01,0 -14.74,-7.22 -26.17,-21.66 -10.82,-13.83 -18.04,-27.67 -21.66,-41.5l13.55 -17.15c11.43,5.4 24.96,8.11 40.61,8.11 43.32,0 86.64,-55.05 129.96,-165.15l-31.59 -18.95c-46.33,-143.2 -82.13,-243.37 -107.41,-300.52l-13.53 -28.88c-7.83,-19.86 -26.17,-32.2 -55.05,-37.01l-2.71 -26.17c41.52,1.8 73.41,2.71 95.66,2.71l93.86 -2.71 2.71 26.17z"/>
   <path class="fil0" d="M1424.13 1100.2l110.1 462.97 4.51 0c40.91,-132.97 82.13,-281.28 123.65,-444.93l19.86 -74.89 58.65 0 158.83 519.82 4.51 0c68.59,-283.39 102.89,-437.41 102.89,-462.06 0,-7.83 -6.02,-14.15 -18.06,-18.97 -11.43,-4.81 -31.28,-9.91 -59.56,-15.33l2.71 -26.17c37.9,1.8 74.91,2.71 111,2.71 36.69,0 74,-0.91 111.9,-2.71l2.71 26.17c-27.69,5.42 -47.52,11.43 -59.56,18.04 -12.03,6.02 -19.25,14.74 -21.66,26.17 -60.77,244.88 -108.3,428.37 -142.59,550.52l-83.04 8.11 -149.8 -487.33 -3.62 0 -134.46 479.21 -83.02 8.11 -147.11 -564.03c-4.22,-10.23 -11.44,-17.76 -21.66,-22.57 -9.63,-5.42 -27.99,-10.82 -55.05,-16.24l2.69 -26.17c37.92,1.8 78.22,2.71 120.93,2.71 42.71,0 83.04,-0.91 120.94,-2.71l2.71 26.17c-42.12,7.83 -66.78,15.33 -74,22.55 -3.62,3.01 -5.42,6.63 -5.42,10.84zm900.33 371.81c-49.34,1.21 -86.94,10.54 -112.82,27.99 -25.87,17.45 -38.79,36.4 -38.79,56.85 0,20.46 5.1,35.49 15.33,45.12 10.84,9.04 27.99,13.55 51.45,13.55 23.46,0 51.73,-9.93 84.83,-29.79l0 -113.72zm65.87 197.65c-36.1,0 -57.15,-19.56 -63.18,-58.65 -52.94,39.09 -98.67,58.65 -137.18,58.65 -25.87,0 -47.83,-7.81 -65.87,-23.46 -18.06,-16.24 -27.08,-41.22 -27.08,-74.91 0,-33.69 17.76,-64.07 53.25,-91.15 36.1,-27.08 94.16,-43.32 174.18,-48.74l0 -83.93c0,-16.85 -6.33,-29.77 -18.97,-38.81 -12.03,-9.02 -29.16,-13.53 -51.43,-13.53 -22.26,0 -40.02,6.31 -53.25,18.95 -13.24,12.04 -19.86,27.69 -19.86,46.94 0,7.22 0.91,15.33 2.71,24.35l-19.86 9.04c-12.03,-6.63 -23.46,-15.65 -34.28,-27.08 -10.23,-11.43 -15.35,-19.56 -15.35,-24.37 0,-5.42 3.9,-12.94 11.73,-22.57 8.43,-10.21 19.56,-21.05 33.39,-32.48 13.83,-11.43 32.19,-21.05 55.05,-28.88 23.48,-8.43 49.65,-12.64 78.53,-12.64 28.88,0 52.34,7.22 70.38,21.66 18.06,13.83 27.08,39.42 27.08,76.71 0,36.7 1.8,114.63 5.42,233.74 0.61,28.88 11.43,43.32 32.48,43.32 9.04,0 18.36,-2.41 27.99,-7.22l9.02 23.46c-22.85,21.07 -47.83,31.59 -74.91,31.59zm275.28 -393.47c-18.04,1.8 -31.57,5.42 -40.61,10.82 -9.02,5.42 -13.53,9.93 -13.53,13.55 0,2.99 31.89,102.87 95.66,299.61 66.19,-188.91 99.28,-288.19 99.28,-297.81 0,-13.24 -16.54,-21.96 -49.63,-26.17l-2.71 -26.17c20.44,1.8 42.1,2.71 64.98,2.71l92.04 -2.71 2.71 26.17c-30.68,4.21 -49.63,15.33 -56.85,33.39 -25.87,80.61 -69.49,197.94 -130.87,351.96 -46.31,117.32 -90.54,190.71 -132.66,220.19 -12.04,8.43 -21.36,13.25 -27.97,14.44 -6,1.8 -12.03,2.71 -18.04,2.71 -6.02,0 -14.74,-7.22 -26.19,-21.66 -10.82,-13.83 -18.04,-27.67 -21.66,-41.52l13.55 -17.15c11.43,5.42 24.96,8.13 40.61,8.13 43.32,0 86.64,-55.05 129.96,-165.15l-31.59 -18.95c-46.33,-143.2 -82.13,-243.37 -107.39,-300.54l-13.55 -28.88c-7.81,-19.84 -26.17,-32.17 -55.05,-36.99l-2.71 -26.17c41.52,1.8 73.41,2.71 95.68,2.71l93.85 -2.71 2.69 26.17zm523.82 -13.55l12.64 6.33c0,39.11 1.8,68.88 5.4,89.35l-23.46 8.11c-7.82,-30.68 -18.95,-52.04 -33.39,-64.07 -13.83,-12.03 -31.59,-18.06 -53.25,-18.06 -21.66,0 -38.81,5.72 -51.43,17.15 -12.64,11.44 -18.97,24.98 -18.97,40.61 0,27.08 15.65,49.34 46.94,66.8l92.06 50.54c39.7,22.24 59.56,54.44 59.56,96.57 0,30.68 -12.33,57.45 -37.01,80.31 -24.07,22.26 -58.65,33.39 -103.79,33.39 -45.12,0 -91.45,-7.52 -138.98,-22.55 7.22,-42.13 10.84,-76.71 10.84,-103.79l23.46 -8.13c5.42,21.66 9.32,36.4 11.73,44.23 3.01,7.83 7.82,17.45 14.44,28.88 7.22,11.43 16.24,18.95 27.08,22.55 10.82,3.62 26.78,5.42 47.83,5.42 21.05,0 38.5,-6.01 52.34,-18.04 13.83,-12.04 20.77,-26.47 20.77,-43.32 0,-25.28 -14.16,-45.72 -42.43,-61.38l-97.46 -54.14c-39.72,-21.07 -59.57,-53.25 -59.57,-96.57 0,-30.68 11.75,-57.76 35.2,-81.22 23.46,-23.48 56.24,-35.21 98.37,-35.21 42.1,0 75.8,5.42 101.07,16.24z"/>
   <g>
   </g>
   <g style="clip-path:url(#id0)">
    <g id="_2708614053296">
     <path class="fil0" d="M1506.03 1792.45l-98.88 -96.3c-8.72,-8.51 -22.67,-8.32 -31.15,0.4 -8.49,8.72 -8.3,22.67 0.4,31.15l98.88 96.3c4.36,4.24 10.02,6.33 15.67,6.25 5.65,-0.07 11.26,-2.29 15.48,-6.65 8.51,-8.72 8.32,-22.67 -0.4,-31.15z"/>
     <path class="fil0" d="M573.62 1545.46c0.15,12.17 10.16,21.91 22.32,21.76 12.17,-0.17 21.91,-10.16 21.74,-22.32l-0.44 -33.98c32.29,-12.81 55.01,-44.55 54.54,-81.3 -0.53,-39.74 -27.99,-72.9 -64.75,-82.33 7.94,-13.24 12.43,-28.76 12.2,-45.31 -0.61,-47.43 -39.63,-85.52 -87.02,-85.05 6.86,-12.56 10.69,-26.98 10.5,-42.28 -0.63,-47.52 -39.8,-85.67 -87.32,-85.04l-42.39 0.55c6.84,-12.56 10.67,-26.98 10.48,-42.26 -0.63,-47.53 -39.8,-85.69 -87.32,-85.06l-1.08 0.02c-12.17,0.15 -21.91,10.16 -21.74,22.32 0.15,12.17 10.16,21.91 22.32,21.74l1.06 -0.02c23.23,-0.3 42.37,18.34 42.67,41.57 0.32,23.23 -18.34,42.37 -41.56,42.67l-100.83 1.33c-23.23,0.3 -42.37,-18.34 -42.67,-41.56 -0.28,-21.6 16.3,-40.25 37.75,-42.44 12.11,-1.25 20.92,-12.07 19.67,-24.18 -1.23,-12.09 -12.06,-20.9 -24.16,-19.67 -11.58,1.19 -22.38,4.61 -32.02,9.76l-146.92 -143.09c-8.72,-8.49 -22.66,-8.32 -31.15,0.4 -8.49,8.74 -8.3,22.68 0.42,31.17l145.4 141.63c-8.49,13.61 -13.27,29.73 -13.04,47 0.63,47.52 39.8,85.67 87.32,85.04l10.88 -0.13c-6.84,12.55 -10.67,26.96 -10.48,42.26 0.63,47.52 39.8,85.69 87.32,85.06l1.21 -0.02c-6.84,12.56 -10.69,26.96 -10.48,42.26 0.63,47.52 39.79,85.69 87.32,85.06l28.2 -0.38c-6.86,12.56 -10.69,26.98 -10.48,42.28 0.63,47.52 39.8,85.67 87.32,85.04l64.85 -0.85 0.36 28.35 0 0zm-291.56 -367.37c-0.3,-23.23 18.34,-42.37 41.57,-42.67l132.32 -1.74c23.23,-0.3 42.37,18.34 42.68,41.56 0.3,23.23 -18.35,42.37 -41.56,42.7l-132.34 1.74c-23.21,0.3 -42.37,-18.34 -42.67,-41.57zm78.05 127.3c-0.3,-23.23 18.34,-42.37 41.57,-42.67l130.81 -1.72c23.23,-0.3 42.37,18.34 42.67,41.57 0.3,23.21 -18.34,42.37 -41.56,42.67l-130.83 1.72c-23.23,0.3 -42.37,-18.34 -42.68,-41.57zm105.04 126.94c-0.32,-23.23 18.34,-42.37 41.56,-42.67l78.32 -1.02c23.23,-0.32 42.39,18.34 42.69,41.56 0.3,23.23 -18.34,42.39 -41.57,42.69l-78.32 1.02c-23.23,0.3 -42.37,-18.35 -42.67,-41.58z"/>
     <path class="fil0" d="M1367.3 1485.18c-0.15,-26.57 -10.71,-51.41 -29.75,-69.94l-129.43 -126.07c-23.25,-22.65 -51.73,-40.29 -82.39,-51.01l-172.92 -60.52 -65.05 -171.27c-11.52,-30.33 -29.9,-58.36 -53.15,-81.01l-107.59 -104.79c-38.89,-37.88 -101.34,-37.06 -139.22,1.84 -10.72,10.99 -18.51,24.2 -23.1,38.43l-271.74 -279.5c-8.49,-8.72 -22.43,-8.91 -31.15,-0.44 -8.74,8.49 -8.93,22.44 -0.44,31.17l542.03 557.49c2.37,2.44 5.29,4.3 8.51,5.44l299.27 104.75c24.63,8.62 47.51,22.8 66.21,40.99l129.43 126.07c10.52,10.25 16.33,23.97 16.43,38.64 0.07,14.67 -5.59,28.44 -15.99,38.81 -20.94,20.88 -55.2,21.06 -76.37,0.38l-107.98 -105.36c-6.39,-6.22 -15.88,-8 -24.08,-4.47 -8.19,3.51 -13.46,11.62 -13.34,20.54l4.98 377.89c0.3,23.21 -18.34,42.37 -41.57,42.67 -23.23,0.3 -42.37,-18.34 -42.67,-41.57l-1.74 -132.97c-0.17,-12.17 -10.16,-21.89 -22.32,-21.74 -12.17,0.17 -21.91,10.16 -21.75,22.32l1.31 98.63c0.15,11.52 -4.28,22.36 -12.49,30.47 -8.19,8.13 -19.08,12.45 -30.64,12.19 -22.38,-0.49 -40.83,-19.82 -41.14,-43.09l-1.86 -141.13c-0.15,-12.17 -10.16,-21.91 -22.32,-21.74 -12.17,0.15 -21.91,10.14 -21.74,22.32l1.42 108.24c0.3,23.21 -18.34,42.37 -41.57,42.67 -23.23,0.3 -42.37,-18.34 -42.67,-41.57l-1.84 -140.09c-0.17,-12.19 -10.16,-21.91 -22.32,-21.75 -12.17,0.17 -21.91,10.15 -21.75,22.32l0.94 71.16c0.15,11.54 -4.28,22.36 -12.47,30.49 -8.2,8.11 -19.1,12.43 -30.66,12.19 -22.38,-0.51 -40.84,-19.84 -41.14,-43.11l-0.4 -29.71c-0.15,-12.17 -10.14,-21.89 -22.32,-21.74 -12.15,0.17 -21.89,10.16 -21.73,22.32l0.4 29.71c0.61,46.71 38.39,85.56 84.21,86.58 16.2,0.36 31.74,-3.7 45.33,-11.62 3.75,44.63 41.56,79.49 87.02,78.89 18.78,-0.24 36.08,-6.5 50.12,-16.94 13.81,28.67 42.6,48.93 75.52,49.67 19.27,0.45 37.65,-5.38 52.87,-16.58 14.04,29.47 44.31,49.7 79.02,49.25 9.82,-0.13 19.24,-1.93 27.99,-5.08l169.22 164.82c4.36,4.22 10.02,6.31 15.65,6.23 5.65,-0.07 11.26,-2.29 15.5,-6.65 8.49,-8.72 8.3,-22.67 -0.42,-31.15l-163.15 -158.93c12.87,-15.27 20.54,-35.06 20.26,-56.56l-4.28 -324.64 170.56 166.05c4.36,4.24 10.02,6.33 15.65,6.26 5.65,-0.08 11.26,-2.3 15.5,-6.67 8.49,-8.72 8.3,-22.66 -0.42,-31.15l-41.78 -40.7c17.85,-3.83 34.81,-12.58 48.61,-26.32 18.81,-18.76 29.09,-43.72 28.94,-70.28l0 0zm-762.39 -583.83c-3.33,-17.47 2.06,-35.49 14.46,-48.21 20.92,-21.47 55.43,-21.93 76.92,-1l107.57 104.79c18.69,18.21 33.46,40.7 42.73,65.09l51.88 136.59 -67.1 -23.48c0,-0.02 -226.41,-233.46 -226.46,-233.78l0 0z"/>
    </g>
   </g>
   <polygon class="fil1" points="-0,2062.5 1523.76,2062.5 1523.76,578.32 -0,578.32 "/>
  </g>
 </g>
</svg>
