<svg width="40" height="38" viewBox="0 0 40 38" fill="none" xmlns="http://www.w3.org/2000/svg">
<path d="M39.9077 22.5697C39.8147 22.3391 39.6548 22.1417 39.4485 22.0029C39.2422 21.864 38.9991 21.7902 38.7504 21.7909H38.1059C37.0145 21.7917 35.9415 22.0714 34.9887 22.6035L30.2813 25.2357H28.9387C28.7823 24.381 28.3313 23.6082 27.6642 23.0515C26.9972 22.4948 26.1561 22.1895 25.2872 22.1886H16.8086C16.712 22.1887 16.6166 22.2098 16.529 22.2505C16.4414 22.2911 16.3637 22.3504 16.3013 22.4241L13.7324 25.4688C13.6708 25.396 13.5941 25.3375 13.5076 25.2972C13.4211 25.257 13.3269 25.236 13.2315 25.2357H0.663548C0.487564 25.2357 0.318788 25.3056 0.194349 25.43C0.0699092 25.5544 0 25.7232 0 25.8992C0 26.0752 0.0699092 26.244 0.194349 26.3684C0.318788 26.4928 0.487564 26.5628 0.663548 26.5628H8.77021V36.0727H0.663548C0.487564 36.0727 0.318788 36.1426 0.194349 36.2671C0.0699092 36.3915 0 36.5603 0 36.7363C0 36.9122 0.0699092 37.081 0.194349 37.2055C0.318788 37.3299 0.487564 37.3998 0.663548 37.3998H13.2315C13.4075 37.3998 13.5763 37.3299 13.7007 37.2055C13.8252 37.081 13.8951 36.9122 13.8951 36.7363V33.5543L27.4269 32.9332C27.4402 32.9332 27.4531 32.9332 27.4648 32.9302C29.5929 32.7032 31.5833 31.7685 33.1171 30.276L39.6225 23.9328C39.8006 23.7599 39.9228 23.5378 39.9736 23.2949C40.0244 23.052 40.0015 22.7995 39.9077 22.5697ZM12.5695 36.0727H10.0973V26.5628H12.5695V36.0727ZM32.1919 29.3277C30.8765 30.6072 29.1709 31.41 27.3465 31.6084L13.8966 32.226V27.3347L17.1195 23.5161H25.2872C25.831 23.5173 26.358 23.7039 26.7813 24.0452C27.2046 24.3865 27.4988 24.8619 27.6154 25.393L20.8915 27.0435C20.7343 27.0824 20.5967 27.1773 20.5046 27.3106C20.4125 27.4439 20.3724 27.6062 20.3917 27.767C20.4111 27.9278 20.4886 28.076 20.6096 28.1836C20.7307 28.2913 20.8869 28.3509 21.0489 28.3513C21.1024 28.3514 21.1558 28.3449 21.2078 28.332L28.4143 26.5628H30.4542C30.5676 26.5628 30.679 26.5338 30.778 26.4786L35.6367 23.7618C36.3914 23.3399 37.2416 23.118 38.1062 23.1172H38.5612L32.1919 29.3277Z" fill="black"/>
<path d="M26.9461 19.6683C28.8911 19.6683 30.7924 19.0916 32.4096 18.011C34.0269 16.9304 35.2873 15.3945 36.0316 13.5975C36.776 11.8006 36.9707 9.82327 36.5913 7.91562C36.2118 6.00798 35.2752 4.2557 33.8999 2.88037C32.5245 1.50503 30.7723 0.568419 28.8646 0.188965C26.957 -0.190488 24.9797 0.00426066 23.1827 0.748586C21.3857 1.49291 19.8499 2.75338 18.7693 4.3706C17.6887 5.98782 17.1119 7.88916 17.1119 9.83418C17.1149 12.4414 18.152 14.941 19.9956 16.7847C21.8392 18.6283 24.3388 19.6653 26.9461 19.6683ZM26.9461 1.3271C28.6286 1.3271 30.2734 1.82603 31.6723 2.7608C33.0713 3.69557 34.1617 5.0242 34.8056 6.57866C35.4494 8.13312 35.6179 9.84361 35.2897 11.4938C34.9614 13.144 34.1512 14.6598 32.9615 15.8496C31.7717 17.0393 30.2559 17.8495 28.6057 18.1778C26.9555 18.506 25.245 18.3376 23.6906 17.6937C22.1361 17.0498 20.8075 15.9594 19.8727 14.5605C18.9379 13.1615 18.439 11.5167 18.439 9.83418C18.4416 7.57876 19.3387 5.41647 20.9335 3.82165C22.5284 2.22683 24.6907 1.32971 26.9461 1.3271Z" fill="black"/>
<path d="M25.2035 12.246C25.2035 12.0701 25.1336 11.9013 25.0091 11.7768C24.8847 11.6524 24.7159 11.5825 24.5399 11.5825C24.364 11.5825 24.1952 11.6524 24.0707 11.7768C23.9463 11.9013 23.8764 12.0701 23.8764 12.246C23.8775 12.9448 24.1162 13.6223 24.5532 14.1675C24.9903 14.7127 25.5997 15.093 26.2815 15.246V16.3615C26.2815 16.5375 26.3514 16.7063 26.4758 16.8307C26.6003 16.9552 26.769 17.0251 26.945 17.0251C27.121 17.0251 27.2898 16.9552 27.4142 16.8307C27.5387 16.7063 27.6086 16.5375 27.6086 16.3615V15.2494C28.2941 15.1002 28.9079 14.7209 29.3481 14.1746C29.7883 13.6283 30.0284 12.9478 30.0284 12.2462C30.0284 11.5446 29.7883 10.8642 29.3481 10.3178C28.9079 9.77152 28.2941 9.39224 27.6086 9.243V5.80355C27.9308 5.93423 28.2068 6.15797 28.4013 6.44622C28.5958 6.73446 28.7 7.07412 28.7006 7.42185C28.7006 7.59783 28.7705 7.76661 28.8949 7.89105C29.0194 8.01549 29.1881 8.0854 29.3641 8.0854C29.5401 8.0854 29.7089 8.01549 29.8333 7.89105C29.9578 7.76661 30.0277 7.59783 30.0277 7.42185C30.0266 6.72061 29.7863 6.04073 29.3464 5.49461C28.9066 4.94849 28.2935 4.56884 27.6086 4.41844V3.30558C27.6086 3.12959 27.5387 2.96082 27.4142 2.83638C27.2898 2.71194 27.121 2.64203 26.945 2.64203C26.769 2.64203 26.6003 2.71194 26.4758 2.83638C26.3514 2.96082 26.2815 3.12959 26.2815 3.30558V4.42148C25.5991 4.57332 24.9889 4.95328 24.5515 5.49865C24.1142 6.04402 23.8758 6.72221 23.8758 7.42128C23.8758 8.12036 24.1142 8.79854 24.5515 9.34391C24.9889 9.88928 25.5991 10.2692 26.2815 10.4211V13.8594C25.9628 13.7267 25.6904 13.5028 25.4986 13.2157C25.3068 12.9286 25.2041 12.5913 25.2035 12.246ZM28.7006 12.246C28.7 12.5938 28.5959 12.9335 28.4014 13.2217C28.2069 13.51 27.9308 13.7337 27.6086 13.8643V10.6281C27.9308 10.7587 28.2068 10.9823 28.4013 11.2705C28.5958 11.5587 28.7 11.8983 28.7006 12.246ZM25.2035 7.42185C25.2039 7.07651 25.3065 6.73901 25.4983 6.45185C25.6901 6.16468 25.9626 5.9407 26.2815 5.8081V9.03598C25.9627 8.90319 25.6902 8.67911 25.4984 8.39191C25.3066 8.10471 25.204 7.76721 25.2035 7.42185Z" fill="black"/>
</svg>
