<?xml version="1.0" encoding="UTF-8"?>
<!DOCTYPE svg PUBLIC "-//W3C//DTD SVG 1.1//EN" "http://www.w3.org/Graphics/SVG/1.1/DTD/svg11.dtd">
<!-- Creator: CorelDRAW 2021 (64-Bit) -->
<svg xmlns="http://www.w3.org/2000/svg" xml:space="preserve" width="1.91726in" height="2.00561in" version="1.1" style="shape-rendering:geometricPrecision; text-rendering:geometricPrecision; image-rendering:optimizeQuality; fill-rule:evenodd; clip-rule:evenodd"
viewBox="0 0 1917.26 2005.61"
 xmlns:xlink="http://www.w3.org/1999/xlink"
 xmlns:xodm="http://www.corel.com/coreldraw/odm/2003">
 <defs>
  <style type="text/css">
   <![CDATA[
    .fil2 {fill:none}
    .fil0 {fill:#ED3237}
    .fil1 {fill:#E8E8E8;fill-rule:nonzero}
   ]]>
  </style>
   <clipPath id="id0">
    <path d="M137.9 1802.22l1641.46 0 0 -1598.83 -1641.46 0 0 1598.83z"/>
   </clipPath>
 </defs>
 <g id="Layer_x0020_1">
  <metadata id="CorelCorpID_0Corel-Layer"/>
  <rect class="fil0" x="-0" y="-0" width="1917.26" height="2005.62" rx="123.69" ry="123.69"/>
  <g>
  </g>
  <g style="clip-path:url(#id0)">
   <g>
    <path class="fil1" d="M1760.27 1511.31l-106.52 -103.74c-9.39,-9.15 -24.41,-8.96 -33.56,0.45 -9.15,9.37 -8.94,24.41 0.45,33.56l106.5 103.74c4.7,4.57 10.82,6.8 16.88,6.72 6.08,-0.08 12.13,-2.47 16.7,-7.17 9.15,-9.39 8.94,-24.41 -0.45,-33.56z"/>
    <path class="fil1" d="M755.83 1245.27c0.19,13.1 10.94,23.6 24.05,23.41 13.11,-0.17 23.6,-10.94 23.41,-24.05l-0.47 -36.6c34.78,-13.78 59.28,-47.99 58.75,-87.57 -0.55,-42.79 -30.15,-78.51 -69.73,-88.7 8.53,-14.27 13.37,-30.99 13.15,-48.81 -0.67,-51.07 -42.7,-92.11 -93.76,-91.62 7.39,-13.53 11.53,-29.07 11.31,-45.54 -0.67,-51.2 -42.87,-92.29 -94.06,-91.62l-45.67 0.59c7.37,-13.54 11.49,-29.05 11.29,-45.52 -0.67,-51.2 -42.87,-92.31 -94.06,-91.63l-1.17 0.02c-13.11,0.19 -23.57,10.94 -23.41,24.05 0.19,13.11 10.94,23.6 24.05,23.41l1.14 0c25.03,-0.35 45.67,19.76 45.99,44.77 0.33,25.03 -19.76,45.64 -44.79,45.97l-108.62 1.43c-25.01,0.35 -45.65,-19.76 -45.97,-44.76 -0.31,-23.27 17.56,-43.36 40.67,-45.73 13.04,-1.35 22.54,-13 21.19,-26.03 -1.33,-13.04 -12.98,-22.54 -26.03,-21.19 -12.47,1.27 -24.11,4.94 -34.5,10.49l-158.26 -154.14c-9.39,-9.15 -24.41,-8.94 -33.56,0.45 -9.15,9.39 -8.94,24.41 0.45,33.56l156.65 152.57c-9.17,14.66 -14.31,32.03 -14.07,50.63 0.67,51.2 42.87,92.31 94.07,91.64l11.74 -0.17c-7.39,13.54 -11.51,29.07 -11.31,45.54 0.68,51.2 42.89,92.29 94.07,91.61l1.31 -0.02c-7.37,13.54 -11.49,29.07 -11.29,45.54 0.68,51.2 42.87,92.29 94.07,91.61l30.37 -0.41c-7.39,13.54 -11.51,29.07 -11.29,45.54 0.67,51.2 42.87,92.29 94.06,91.61l69.85 -0.92 0.39 30.56 0 0zm-314.08 -395.78c-0.33,-25.03 19.76,-45.65 44.78,-45.97l142.55 -1.88c25.03,-0.33 45.65,19.76 45.97,44.78 0.33,25.01 -19.76,45.65 -44.77,45.97l-142.55 1.88c-25.02,0.33 -45.66,-19.76 -45.99,-44.79zm84.08 137.14c-0.33,-25.03 19.76,-45.65 44.78,-45.97l140.91 -1.86c25.03,-0.32 45.65,19.76 45.97,44.79 0.35,25.03 -19.74,45.65 -44.77,45.97l-140.93 1.86c-25.03,0.33 -45.64,-19.76 -45.97,-44.79zm113.15 136.75c-0.33,-25 19.76,-45.64 44.77,-45.97l84.39 -1.1c25.01,-0.33 45.65,19.76 45.97,44.78 0.33,25.01 -19.76,45.65 -44.79,45.97l-84.37 1.1c-25.03,0.33 -45.65,-19.76 -45.97,-44.79z"/>
    <path class="fil1" d="M1610.83 1180.31c-0.17,-28.6 -11.54,-55.36 -32.05,-75.33l-139.43 -135.81c-25.05,-24.42 -55.73,-43.4 -88.74,-54.97l-186.27 -65.2 -70.08 -184.48c-12.43,-32.7 -32.23,-62.87 -57.28,-87.29l-115.91 -112.89c-41.89,-40.81 -109.17,-39.91 -149.98,1.98 -11.53,11.84 -19.94,26.07 -24.88,41.4l-292.73 -301.07c-9.15,-9.41 -24.17,-9.62 -33.56,-0.47 -9.41,9.13 -9.61,24.15 -0.47,33.56l583.9 600.56c2.55,2.63 5.7,4.63 9.17,5.86l322.39 112.85c26.54,9.29 51.2,24.56 71.32,44.17l139.42 135.81c11.33,11.02 17.62,25.8 17.7,41.6 0.1,15.8 -6.02,30.66 -17.21,41.81 -22.58,22.49 -59.48,22.68 -82.29,0.43l-116.31 -113.5c-6.88,-6.72 -17.11,-8.61 -25.93,-4.84 -8.84,3.8 -14.51,12.54 -14.39,22.13l5.37 407.08c0.33,25.02 -19.76,45.64 -44.78,45.97 -25.03,0.33 -45.65,-19.76 -45.97,-44.76l-1.88 -143.24c-0.19,-13.12 -10.94,-23.59 -24.05,-23.43 -13.11,0.19 -23.6,10.94 -23.41,24.05l1.39 106.25c0.17,12.43 -4.61,24.09 -13.45,32.85 -8.82,8.74 -20.56,13.39 -33.01,13.12 -24.11,-0.55 -43.99,-21.37 -44.31,-46.44l-2 -152.04c-0.17,-13.11 -10.94,-23.6 -24.05,-23.41 -13.11,0.16 -23.6,10.94 -23.41,24.05l1.53 116.6c0.33,25.03 -19.76,45.65 -44.78,45.97 -25.01,0.33 -45.65,-19.76 -45.97,-44.79l-1.98 -150.92c-0.16,-13.1 -10.94,-23.6 -24.05,-23.41 -13.11,0.17 -23.6,10.92 -23.41,24.05l1 76.63c0.16,12.43 -4.61,24.09 -13.43,32.84 -8.84,8.74 -20.57,13.41 -33.03,13.13 -24.11,-0.55 -43.99,-21.37 -44.32,-46.42l-0.41 -32.01c-0.19,-13.13 -10.94,-23.59 -24.05,-23.43 -13.11,0.19 -23.6,10.94 -23.44,24.05l0.43 32.01c0.67,50.32 41.36,92.17 90.72,93.27 17.45,0.39 34.21,-3.96 48.83,-12.51 4.04,48.07 44.77,85.63 93.74,84.98 20.23,-0.26 38.89,-7 54,-18.23 14.9,30.89 45.89,52.7 81.35,53.48 20.76,0.49 40.58,-5.8 56.97,-17.84 15.11,31.74 47.7,53.54 85.1,53.03 10.57,-0.12 20.72,-2.06 30.15,-5.47l182.29 177.56c4.69,4.57 10.8,6.8 16.86,6.72 6.08,-0.06 12.13,-2.47 16.7,-7.17 9.15,-9.39 8.94,-24.42 -0.45,-33.56l-175.76 -171.21c13.86,-16.45 22.13,-37.76 21.82,-60.93l-4.59 -349.72 183.72 178.88c4.69,4.57 10.8,6.82 16.88,6.74 6.06,-0.08 12.11,-2.47 16.68,-7.17 9.15,-9.39 8.96,-24.41 -0.45,-33.56l-45.01 -43.87c19.23,-4.1 37.52,-13.56 52.36,-28.35 20.27,-20.21 31.33,-47.09 31.17,-75.71l0 0zm-821.29 -628.93c-3.59,-18.8 2.25,-38.22 15.57,-51.91 22.56,-23.15 59.71,-23.64 82.86,-1.1l115.91 112.89c20.11,19.62 36.03,43.87 46.01,70.14l55.89 147.12 -72.28 -25.29c0,0 -243.88,-251.47 -243.96,-251.84l0 0z"/>
   </g>
  </g>
  <polygon class="fil2" points="137.9,1802.22 1779.36,1802.22 1779.36,203.39 137.9,203.39 "/>
 </g>
</svg>
